<svg width="400" height="400" viewBox="0 0 400 400" fill="none" xmlns="http://www.w3.org/2000/svg">
    <path d="M201.912 156.134C196.597 174.298 195.531 178.555 192.343 188.163C190.216 195.64 185.962 198.841 180.642 198.841C176.388 198.841 172.134 196.705 168.946 192.458C159.377 180.715 146.615 163.63 139.168 154.022C129.599 143.344 107.269 133.732 95.5678 147.64C79.6179 167.926 98.7607 191.418 110.457 205.297C111.523 206.367 112.584 207.432 112.584 208.502C114.711 211.703 117.903 213.839 120.03 217.04C125.345 223.447 130.66 227.718 127.472 231.989C126.406 234.125 123.218 235.195 120.03 235.195C111.523 235.195 83.8474 227.718 77.491 226.653C72.176 225.582 67.922 225.582 65.7951 229.854C63.6681 235.195 71.1101 249.074 89.1869 258.682C107.264 268.29 137.041 272.566 139.168 273.631C149.803 275.767 147.676 281.108 145.549 284.309L143.422 286.396C141.295 288.531 140.234 289.602 140.234 291.732C141.295 298.139 156.184 300.275 164.682 301.345C173.18 302.415 183.825 303.48 191.267 300.275C198.709 297.069 198.714 292.802 204.029 290.667C209.344 288.531 211.471 289.602 217.852 290.667C219.979 291.732 223.172 291.732 227.425 292.802C236.994 294.938 252.944 292.802 262.518 289.602C279.534 284.26 286.966 277.853 286.966 275.718C286.966 273.582 283.773 272.517 280.61 272.517C277.422 271.446 264.66 269.311 260.406 267.175C256.152 263.974 259.34 259.703 267.848 256.497C276.356 253.291 304.031 241.553 314.641 231.95C325.252 222.347 334.845 206.328 326.337 197.785C318.895 189.243 306.133 195.65 297.625 199.921C296.559 200.986 295.498 200.986 294.432 202.056C283.798 207.393 265.721 217.001 259.34 218.071C254.025 219.136 244.451 219.136 248.705 206.328C254.025 191.378 257.213 181.78 260.406 172.158C264.66 160.415 271.041 132.652 243.39 124.109C223.181 116.627 209.334 133.712 201.912 156.134ZM176.388 164.676C176.388 164.676 184.886 135.843 191.277 123.034C201.912 101.678 221.069 91 241.258 91C244.446 91 247.639 91 249.766 92.0653C291.24 99.5424 292.306 142.25 289.113 157.199C285.92 171.078 280.605 184.962 279.544 189.233V190.298C282.732 189.233 297.635 181.756 313.57 174.284C329.52 167.901 358.237 167.901 350.79 199.911C343.348 233.01 306.128 252.226 301.894 253.296C298.701 255.432 293.386 257.567 292.32 258.633C291.254 259.698 291.259 259.703 292.32 259.703C293.381 259.703 294.447 259.703 296.574 260.768C301.894 260.768 309.336 261.839 309.336 266.11C309.336 272.517 299.767 282.124 273.182 293.868C245.532 306.681 222.135 300.25 215.754 299.209C213.627 301.345 200.87 314.159 164.712 306.681C138.127 302.41 131.746 299.209 125.365 291.732C123.238 289.602 122.177 286.396 124.299 281.059C125.365 279.989 125.365 278.923 124.299 278.923C83.8915 270.381 59.4337 244.754 50.9258 228.739C46.6719 220.197 47.7329 214.855 49.8599 211.654C53.0528 206.318 63.6877 206.318 74.3079 209.519C87.0648 212.72 93.4457 214.855 95.5727 214.855C96.6386 214.855 96.6386 214.855 95.5727 213.79C92.3847 209.519 81.7498 195.625 76.4348 187.097C66.8561 172.148 55.1602 133.712 85.9989 117.693C118.965 99.5277 148.742 131.572 155.123 139.049C160.438 146.521 172.134 161.47 173.215 163.596C175.342 166.802 176.403 164.666 176.403 164.666L176.388 164.676Z" fill="currentColor" />
</svg>
    